<?xml version="1.0" encoding="utf-8"?>
<!-- Generator: Adobe Illustrator 27.5.0, SVG Export Plug-In . SVG Version: 6.00 Build 0)  -->
<svg version="1.1" xmlns="http://www.w3.org/2000/svg" xmlns:xlink="http://www.w3.org/1999/xlink" x="0px" y="0px"
	 viewBox="0 0 600 600" style="enable-background:new 0 0 600 600;" xml:space="preserve">
<g id="background">
	<rect style="fill:#FFFFFF;" width="600" height="600"/>
</g>
<g id="objects">
	<g>
		<g>
			<linearGradient id="SVGID_1_" gradientUnits="userSpaceOnUse" x1="298.3894" y1="406.7729" x2="298.3894" y2="414.0747">
				<stop  offset="0.3564" style="stop-color:#808185"/>
				<stop  offset="0.5045" style="stop-color:#78797D"/>
				<stop  offset="0.5443" style="stop-color:#7A7B7F"/>
				<stop  offset="1" style="stop-color:#0D0C11"/>
			</linearGradient>
			<path style="fill:url(#SVGID_1_);" d="M563.389,406.76c0,0-16.308,7.135-40.769,7.135c-24.462,0-424,0-448.462,0
				s-40.769-7.135-40.769-7.135l265-2.038L563.389,406.76z"/>
			
				<linearGradient id="SVGID_00000055699464859776696650000006033473483852931230_" gradientUnits="userSpaceOnUse" x1="298.3894" y1="107.435" x2="298.3894" y2="388.3585">
				<stop  offset="0" style="stop-color:#0E0E0E"/>
				<stop  offset="0.0092" style="stop-color:#373737"/>
				<stop  offset="0.0982" style="stop-color:#3E3E3E"/>
				<stop  offset="0.1202" style="stop-color:#949494"/>
				<stop  offset="0.1722" style="stop-color:#3E3E3E"/>
				<stop  offset="0.2384" style="stop-color:#1F1F1F"/>
				<stop  offset="0.4063" style="stop-color:#3E3E3E"/>
				<stop  offset="0.4336" style="stop-color:#808080"/>
				<stop  offset="0.4621" style="stop-color:#3E3E3E"/>
				<stop  offset="0.5727" style="stop-color:#3E3E3E"/>
				<stop  offset="0.5998" style="stop-color:#646464"/>
				<stop  offset="0.6294" style="stop-color:#3E3E3E"/>
				<stop  offset="0.6916" style="stop-color:#3E3E3E"/>
				<stop  offset="0.7908" style="stop-color:#0C0C0C"/>
				<stop  offset="0.9015" style="stop-color:#3E3E3E"/>
				<stop  offset="0.9334" style="stop-color:#8F8F8F"/>
				<stop  offset="0.9577" style="stop-color:#3E3E3E"/>
			</linearGradient>
			<path style="fill:url(#SVGID_00000055699464859776696650000006033473483852931230_);" d="M513.447,396.567H83.332V117.106
				c0-5.523,4.477-10,10-10h410.115c5.523,0,10,4.477,10,10V396.567z"/>
			<path d="M84.861,396.567V117.298c0-4.777,3.887-8.663,8.663-8.663h409.731c4.777,0,8.663,3.886,8.663,8.663v279.269H84.861z"/>
			
				<linearGradient id="SVGID_00000118373511080997964770000015688211147323796354_" gradientUnits="userSpaceOnUse" x1="33.3894" y1="401.6635" x2="563.3895" y2="401.6635">
				<stop  offset="0" style="stop-color:#49484D"/>
				<stop  offset="0.0121" style="stop-color:#D3D4D9"/>
				<stop  offset="0.0282" style="stop-color:#D0D1D6"/>
				<stop  offset="0.0804" style="stop-color:#8C8D92"/>
				<stop  offset="0.0918" style="stop-color:#85868B"/>
				<stop  offset="0.5113" style="stop-color:#CBCCD2"/>
				<stop  offset="0.9264" style="stop-color:#85868B"/>
				<stop  offset="0.937" style="stop-color:#8B8C91"/>
				<stop  offset="0.979" style="stop-color:#D0D1D6"/>
				<stop  offset="0.994" style="stop-color:#D3D4D9"/>
				<stop  offset="1" style="stop-color:#454449"/>
			</linearGradient>
			
				<rect x="33.389" y="396.567" style="fill:url(#SVGID_00000118373511080997964770000015688211147323796354_);" width="530" height="10.192"/>
			
				<linearGradient id="SVGID_00000016782637142012026270000002340609740512974259_" gradientUnits="userSpaceOnUse" x1="255.5818" y1="400.1346" x2="341.1971" y2="400.1346">
				<stop  offset="0" style="stop-color:#161617"/>
				<stop  offset="0.0581" style="stop-color:#84848A"/>
				<stop  offset="0.3011" style="stop-color:#8F8F96"/>
				<stop  offset="0.524" style="stop-color:#ADADB5"/>
				<stop  offset="0.7161" style="stop-color:#8A8B91"/>
				<stop  offset="0.9495" style="stop-color:#7B7C81"/>
				<stop  offset="1" style="stop-color:#0D0C11"/>
			</linearGradient>
			<path style="fill:url(#SVGID_00000016782637142012026270000002340609740512974259_);" d="M335.099,403.702H261.68
				c-3.368,0-6.098-2.73-6.098-6.098v-1.037h85.615v1.037C341.197,400.972,338.467,403.702,335.099,403.702z"/>
			
				<line style="fill:none;stroke:#000000;stroke-width:0.5;stroke-miterlimit:10;" x1="511.918" y1="387.394" x2="84.861" y2="387.394"/>
			<g>
				
					<linearGradient id="SVGID_00000021804259525078150530000007008902740374991771_" gradientUnits="userSpaceOnUse" x1="77.8169" y1="115.3505" x2="170.6365" y2="208.1701">
					<stop  offset="4.783163e-04" style="stop-color:#9E9E9E"/>
					<stop  offset="1" style="stop-color:#1D1D1B"/>
				</linearGradient>
				<path style="fill:url(#SVGID_00000021804259525078150530000007008902740374991771_);" d="M271.889,110.163l-185.5,213.019
					V117.298c0-3.934,3.2-7.135,7.135-7.135H271.889z"/>
			</g>
			<rect x="95.563" y="127.49" style="fill:#FFFFFF;" width="405.654" height="252.769"/>
			<circle style="fill:#232323;" cx="298.389" cy="118.317" r="3.058"/>
		</g>
		<g>
			<g>
				
					<linearGradient id="SVGID_00000112615251968983328810000013736117208682140303_" gradientUnits="userSpaceOnUse" x1="462.0303" y1="313.7818" x2="462.0303" y2="343.3899">
					<stop  offset="0" style="stop-color:#0E0E0E"/>
					<stop  offset="0.0092" style="stop-color:#373737"/>
					<stop  offset="0.0982" style="stop-color:#3E3E3E"/>
					<stop  offset="0.1202" style="stop-color:#949494"/>
					<stop  offset="0.1722" style="stop-color:#3E3E3E"/>
					<stop  offset="0.2384" style="stop-color:#1F1F1F"/>
					<stop  offset="0.4063" style="stop-color:#3E3E3E"/>
					<stop  offset="0.4336" style="stop-color:#808080"/>
					<stop  offset="0.4621" style="stop-color:#3E3E3E"/>
					<stop  offset="0.5727" style="stop-color:#3E3E3E"/>
					<stop  offset="0.5998" style="stop-color:#646464"/>
					<stop  offset="0.6294" style="stop-color:#3E3E3E"/>
					<stop  offset="0.6916" style="stop-color:#3E3E3E"/>
					<stop  offset="0.7908" style="stop-color:#0C0C0C"/>
					<stop  offset="0.9015" style="stop-color:#3E3E3E"/>
					<stop  offset="0.9334" style="stop-color:#8F8F8F"/>
					<stop  offset="0.9577" style="stop-color:#3E3E3E"/>
				</linearGradient>
				<path style="fill:url(#SVGID_00000112615251968983328810000013736117208682140303_);" d="M462.671,324.344v7.907h-0.641
					c-0.354,0-0.641-0.287-0.641-0.645v-6.617c0-0.358,0.287-0.645,0.641-0.645H462.671z"/>
				
					<linearGradient id="SVGID_00000118376036691442860960000005581464945006020797_" gradientUnits="userSpaceOnUse" x1="462.0303" y1="333.2387" x2="462.0303" y2="397.9608">
					<stop  offset="0" style="stop-color:#0E0E0E"/>
					<stop  offset="0.0092" style="stop-color:#373737"/>
					<stop  offset="0.0982" style="stop-color:#3E3E3E"/>
					<stop  offset="0.1202" style="stop-color:#949494"/>
					<stop  offset="0.1722" style="stop-color:#3E3E3E"/>
					<stop  offset="0.2384" style="stop-color:#1F1F1F"/>
					<stop  offset="0.4063" style="stop-color:#3E3E3E"/>
					<stop  offset="0.4336" style="stop-color:#808080"/>
					<stop  offset="0.4621" style="stop-color:#3E3E3E"/>
					<stop  offset="0.5727" style="stop-color:#3E3E3E"/>
					<stop  offset="0.5998" style="stop-color:#646464"/>
					<stop  offset="0.6294" style="stop-color:#3E3E3E"/>
					<stop  offset="0.6916" style="stop-color:#3E3E3E"/>
					<stop  offset="0.7908" style="stop-color:#0C0C0C"/>
					<stop  offset="0.9015" style="stop-color:#3E3E3E"/>
					<stop  offset="0.9334" style="stop-color:#8F8F8F"/>
					<stop  offset="0.9577" style="stop-color:#3E3E3E"/>
				</linearGradient>
				<path style="fill:url(#SVGID_00000118376036691442860960000005581464945006020797_);" d="M462.671,340.159v15.398h-0.641
					c-0.354,0-0.641-0.287-0.641-0.645v-14.108c0-0.358,0.287-0.645,0.641-0.645H462.671z"/>
				
					<linearGradient id="SVGID_00000006686800845403607340000006412792941125078405_" gradientUnits="userSpaceOnUse" x1="565.8989" y1="344.0194" x2="565.8989" y2="428.454">
					<stop  offset="0" style="stop-color:#0E0E0E"/>
					<stop  offset="0.0092" style="stop-color:#373737"/>
					<stop  offset="0.0982" style="stop-color:#3E3E3E"/>
					<stop  offset="0.1202" style="stop-color:#949494"/>
					<stop  offset="0.1722" style="stop-color:#3E3E3E"/>
					<stop  offset="0.2384" style="stop-color:#1F1F1F"/>
					<stop  offset="0.4063" style="stop-color:#3E3E3E"/>
					<stop  offset="0.4336" style="stop-color:#808080"/>
					<stop  offset="0.4621" style="stop-color:#3E3E3E"/>
					<stop  offset="0.5727" style="stop-color:#3E3E3E"/>
					<stop  offset="0.5998" style="stop-color:#646464"/>
					<stop  offset="0.6294" style="stop-color:#3E3E3E"/>
					<stop  offset="0.6916" style="stop-color:#3E3E3E"/>
					<stop  offset="0.7908" style="stop-color:#0C0C0C"/>
					<stop  offset="0.9015" style="stop-color:#3E3E3E"/>
					<stop  offset="0.9334" style="stop-color:#8F8F8F"/>
					<stop  offset="0.9577" style="stop-color:#3E3E3E"/>
				</linearGradient>
				<path style="fill:url(#SVGID_00000006686800845403607340000006412792941125078405_);" d="M566.611,345.581v23.51
					c0,0.287-0.229,0.516-0.516,0.516h-0.907v-24.542h0.907C566.382,345.065,566.611,345.298,566.611,345.581z"/>
				
					<linearGradient id="SVGID_00000041292274634095484630000002049105069675348893_" gradientUnits="userSpaceOnUse" x1="513.9979" y1="281.8943" x2="513.9979" y2="492.8942">
					<stop  offset="0" style="stop-color:#0E0E0E"/>
					<stop  offset="0.0092" style="stop-color:#373737"/>
					<stop  offset="0.0982" style="stop-color:#3E3E3E"/>
					<stop  offset="0.1202" style="stop-color:#949494"/>
					<stop  offset="0.1722" style="stop-color:#3E3E3E"/>
					<stop  offset="0.2384" style="stop-color:#1F1F1F"/>
					<stop  offset="0.4063" style="stop-color:#3E3E3E"/>
					<stop  offset="0.4336" style="stop-color:#808080"/>
					<stop  offset="0.4621" style="stop-color:#3E3E3E"/>
					<stop  offset="0.5727" style="stop-color:#3E3E3E"/>
					<stop  offset="0.5998" style="stop-color:#646464"/>
					<stop  offset="0.6294" style="stop-color:#3E3E3E"/>
					<stop  offset="0.6916" style="stop-color:#3E3E3E"/>
					<stop  offset="0.7908" style="stop-color:#0C0C0C"/>
					<stop  offset="0.9015" style="stop-color:#3E3E3E"/>
					<stop  offset="0.9334" style="stop-color:#8F8F8F"/>
					<stop  offset="0.9577" style="stop-color:#3E3E3E"/>
				</linearGradient>
				<path style="fill:url(#SVGID_00000041292274634095484630000002049105069675348893_);" d="M565.603,296.877v181.035
					c0,8.274-6.705,14.982-14.982,14.982h-73.246c-8.274,0-14.982-6.709-14.982-14.982V296.877c0-8.274,6.709-14.982,14.982-14.982
					h73.246C558.899,281.894,565.603,288.603,565.603,296.877z"/>
				
					<linearGradient id="SVGID_00000150791269335347284250000012480393559331703970_" gradientUnits="userSpaceOnUse" x1="462.3939" y1="299.4624" x2="464.0586" y2="299.4624">
					<stop  offset="0" style="stop-color:#9B9B9B"/>
					<stop  offset="1" style="stop-color:#696969"/>
				</linearGradient>
				
					<rect x="462.394" y="299.309" style="fill:url(#SVGID_00000150791269335347284250000012480393559331703970_);" width="1.665" height="0.307"/>
				
					<linearGradient id="SVGID_00000103225226253323192250000000261207267478060730_" gradientUnits="userSpaceOnUse" x1="563.9402" y1="299.4624" x2="565.6049" y2="299.4624">
					<stop  offset="0" style="stop-color:#696969"/>
					<stop  offset="1" style="stop-color:#9B9B9B"/>
				</linearGradient>
				
					<rect x="563.94" y="299.309" style="fill:url(#SVGID_00000103225226253323192250000000261207267478060730_);" width="1.665" height="0.307"/>
				
					<linearGradient id="SVGID_00000181784430056858525370000003317689323762654630_" gradientUnits="userSpaceOnUse" x1="142.893" y1="221.2039" x2="144.5577" y2="221.2039" gradientTransform="matrix(0 -1 1 0 325.6924 426.452)">
					<stop  offset="0" style="stop-color:#696969"/>
					<stop  offset="1" style="stop-color:#9B9B9B"/>
				</linearGradient>
				<polygon style="fill:url(#SVGID_00000181784430056858525370000003317689323762654630_);" points="547.05,281.894 
					547.05,283.559 546.743,283.559 546.743,281.894 				"/>
				
					<linearGradient id="SVGID_00000098908345978620606010000003038675413817129135_" gradientUnits="userSpaceOnUse" x1="142.893" y1="155.4101" x2="144.5577" y2="155.4101" gradientTransform="matrix(0 -1 1 0 325.6924 426.452)">
					<stop  offset="0" style="stop-color:#696969"/>
					<stop  offset="1" style="stop-color:#9B9B9B"/>
				</linearGradient>
				<polygon style="fill:url(#SVGID_00000098908345978620606010000003038675413817129135_);" points="481.256,281.894 
					481.256,283.559 480.949,283.559 480.949,281.894 				"/>
				
					<linearGradient id="SVGID_00000055683049258902031000000009666280074360830910_" gradientUnits="userSpaceOnUse" x1="462.3939" y1="545.5095" x2="464.0586" y2="545.5095" gradientTransform="matrix(1 0 0 -1 0 1020.8356)">
					<stop  offset="0" style="stop-color:#9B9B9B"/>
					<stop  offset="1" style="stop-color:#696969"/>
				</linearGradient>
				
					<rect x="462.394" y="475.172" style="fill:url(#SVGID_00000055683049258902031000000009666280074360830910_);" width="1.665" height="0.307"/>
				
					<linearGradient id="SVGID_00000078017484599796753250000014522875027100914824_" gradientUnits="userSpaceOnUse" x1="563.9402" y1="545.5095" x2="565.6049" y2="545.5095" gradientTransform="matrix(1 0 0 -1 0 1020.8356)">
					<stop  offset="0" style="stop-color:#696969"/>
					<stop  offset="1" style="stop-color:#9B9B9B"/>
				</linearGradient>
				
					<rect x="563.94" y="475.172" style="fill:url(#SVGID_00000078017484599796753250000014522875027100914824_);" width="1.665" height="0.307"/>
				
					<linearGradient id="SVGID_00000076574518918084415240000003081568623571784085_" gradientUnits="userSpaceOnUse" x1="-103.1541" y1="221.2039" x2="-101.4894" y2="221.2039" gradientTransform="matrix(0 1 1 0 325.6924 594.3836)">
					<stop  offset="0" style="stop-color:#696969"/>
					<stop  offset="1" style="stop-color:#9B9B9B"/>
				</linearGradient>
				<polygon style="fill:url(#SVGID_00000076574518918084415240000003081568623571784085_);" points="547.05,492.894 547.05,491.23 
					546.743,491.23 546.743,492.894 				"/>
				
					<linearGradient id="SVGID_00000180330631115605488740000004950459843622451075_" gradientUnits="userSpaceOnUse" x1="-103.1541" y1="155.4101" x2="-101.4894" y2="155.4101" gradientTransform="matrix(0 1 1 0 325.6924 594.3836)">
					<stop  offset="0" style="stop-color:#696969"/>
					<stop  offset="1" style="stop-color:#9B9B9B"/>
				</linearGradient>
				<polygon style="fill:url(#SVGID_00000180330631115605488740000004950459843622451075_);" points="481.256,492.894 
					481.256,491.23 480.949,491.23 480.949,492.894 				"/>
				<path style="fill:#010101;" d="M563.939,296.877v181.035c0,7.341-5.972,13.318-13.318,13.318h-73.246
					c-7.341,0-13.318-5.976-13.318-13.318V296.877c0-7.345,5.976-13.318,13.318-13.318h73.246
					C557.967,283.559,563.939,289.531,563.939,296.877z"/>
				<path style="fill:#FFFFFF;" d="M560.609,296.877v181.035c0,5.506-4.482,9.988-9.988,9.988h-73.246
					c-5.506,0-9.988-4.482-9.988-9.988V296.877c0-5.506,4.482-9.988,9.988-9.988h16.231c0.691,0,1.249,0.558,1.249,1.249v1.249
					c0,2.988,2.422,5.41,5.41,5.41h27.467c2.988,0,5.41-2.422,5.41-5.41v-1.249c0-0.691,0.558-1.249,1.249-1.249h16.231
					C556.127,286.888,560.609,291.371,560.609,296.877z"/>
				
					<linearGradient id="SVGID_00000157281480744585603050000007078254635373730711_" gradientUnits="userSpaceOnUse" x1="500.0051" y1="291.073" x2="500.0051" y2="288.3575">
					<stop  offset="0.431" style="stop-color:#363636"/>
					<stop  offset="0.9997" style="stop-color:#1A1A1A"/>
				</linearGradient>
				<circle style="fill:url(#SVGID_00000157281480744585603050000007078254635373730711_);" cx="500.005" cy="289.77" r="1.548"/>
				
					<linearGradient id="SVGID_00000025408007970599049770000012983474088723479682_" gradientUnits="userSpaceOnUse" x1="513.9994" y1="291.073" x2="513.9994" y2="288.3575">
					<stop  offset="0.431" style="stop-color:#363636"/>
					<stop  offset="0.9997" style="stop-color:#1A1A1A"/>
				</linearGradient>
				<path style="fill:url(#SVGID_00000025408007970599049770000012983474088723479682_);" d="M518.162,291.319h-8.326
					c-0.847,0-1.534-0.687-1.534-1.534v-0.029c0-0.847,0.687-1.534,1.534-1.534h8.326c0.847,0,1.534,0.687,1.534,1.534v0.029
					C519.696,290.632,519.009,291.319,518.162,291.319z"/>
			</g>
		</g>
	</g>
</g>
</svg>
